<?xml version="1.0" standalone="no"?>
<!DOCTYPE svg PUBLIC "-//W3C//DTD SVG 20010904//EN"
 "http://www.w3.org/TR/2001/REC-SVG-20010904/DTD/svg10.dtd">
<svg version="1.0" xmlns="http://www.w3.org/2000/svg"
 width="16.000000pt" height="16.000000pt" viewBox="0 0 16.000000 16.000000"
 preserveAspectRatio="xMidYMid meet">
<metadata>
Created by potrace 1.11, written by Peter Selinger 2001-2013
</metadata>
<g transform="translate(0.000000,16.000000) scale(0.002658,-0.002658)"
fill="#000000" stroke="none">
<path d="M2798 6015 c-2 -2 -39 -5 -83 -9 -97 -8 -183 -18 -261 -32 -66 -12
-219 -45 -257 -56 -23 -6 -47 -12 -54 -14 -38 -7 -224 -73 -326 -115 -118 -50
-330 -156 -379 -190 -14 -11 -29 -19 -32 -19 -11 0 -169 -112 -275 -194 -272
-211 -528 -501 -696 -786 -21 -36 -45 -76 -54 -90 -8 -14 -16 -27 -17 -30 0
-3 -31 -67 -67 -142 -37 -76 -67 -143 -67 -151 0 -7 -4 -17 -9 -22 -15 -17
-79 -214 -115 -355 -31 -122 -57 -257 -71 -365 -38 -289 -29 -687 20 -965 3
-14 7 -41 10 -60 30 -185 137 -494 245 -710 82 -163 91 -179 195 -335 156
-232 343 -440 573 -637 213 -183 565 -394 837 -502 66 -26 129 -51 140 -56 96
-42 448 -129 590 -145 33 -4 69 -9 80 -11 46 -10 210 -18 350 -18 220 0 352
14 580 59 113 23 398 114 417 133 5 5 -214 559 -277 697 -7 17 -26 62 -41 100
-15 39 -28 71 -29 72 -1 2 -48 -12 -106 -31 -132 -43 -220 -63 -339 -76 -91
-10 -334 -14 -375 -6 -11 2 -49 7 -85 11 -36 4 -74 9 -85 12 -11 2 -37 6 -57
9 -56 7 -239 60 -347 101 -101 37 -325 145 -352 169 -8 8 -19 14 -22 14 -11 0
-153 98 -234 162 -107 84 -286 267 -370 379 -226 303 -353 628 -390 999 -8 89
-8 372 1 450 28 248 104 517 201 711 170 339 459 647 780 830 185 105 450 205
625 234 19 3 42 8 50 10 8 2 42 7 75 10 33 3 74 8 90 10 36 5 285 6 335 1 117
-11 299 -43 401 -70 12 -3 39 79 143 444 70 247 125 453 122 458 -5 8 -111 35
-133 34 -5 0 -15 4 -23 8 -8 4 -58 15 -110 24 -52 9 -104 18 -115 20 -11 2
-49 7 -85 11 -36 3 -78 9 -95 12 -30 5 -422 12 -427 8z"/>
<path d="M4420 5448 c-47 -83 -92 -164 -100 -179 -8 -16 -48 -88 -89 -161 -41
-73 -82 -146 -91 -163 -9 -16 -33 -61 -55 -99 -26 -47 -35 -71 -27 -74 7 -2
52 -30 100 -61 291 -192 522 -453 681 -769 61 -120 104 -232 145 -369 l15 -53
-589 0 -590 0 -30 43 c-82 113 -225 235 -356 300 -49 25 -159 65 -199 73 -96
19 -144 25 -211 25 -429 2 -796 -262 -927 -666 -35 -107 -38 -130 -43 -275 -3
-128 2 -172 38 -294 99 -341 392 -603 750 -669 76 -14 271 -16 333 -2 149 31
256 75 375 153 78 52 209 185 260 264 l43 68 583 0 c335 0 584 -4 584 -9 0
-22 -52 -204 -79 -277 -116 -315 -321 -591 -626 -839 -98 -80 -101 -83 -90
-98 9 -13 543 -727 551 -736 2 -3 69 44 84 59 3 3 39 32 80 65 84 67 340 319
413 406 229 274 397 576 509 914 16 50 31 97 33 105 2 8 13 53 25 99 25 100
66 342 77 461 15 168 8 587 -12 700 -2 14 -7 43 -10 65 -10 74 -45 239 -66
315 -12 41 -22 82 -24 90 -2 8 -4 15 -5 15 -1 0 -3 7 -5 15 -2 8 -19 60 -38
115 -121 344 -316 686 -546 955 -76 90 -257 269 -326 325 -28 22 -52 43 -55
46 -27 32 -379 269 -400 269 -3 0 -44 -68 -90 -152z"/>
</g>
</svg>
